  <svg
      xmlns="http://www.w3.org/2000/svg"
      viewBox="0 0 300 171.41"
      width="30"
      height="18"
    >
      <path
        fill="#092246"
        d="m121.66,117.12c-46.14-45.06.83-107.09,53.61-79.02,28.58,15.2,15.59,58.71-16.89,45.65-9.84-3.54-20.83-7.96-29.38.89-7.72,7.04-6.1,15.91-4.76,25.04-24.57-29.91-1.21-74.5,38.29-62.63-.56-.61-11.58-9.45-29.39-2.66-32.42,14-29.27,51.68-11.48,72.74Z"
      />
      <path
        fill="#004c7e"
        d="m192.09,77.69c-4.51,16.57-22.4,18.17-36.66,13.9-26.7-7.68-25.36,21.09-5.42,27.88,35.68,12.15,53.87-25.74,50.33-47.28,14.82,35.21-30.27,72.7-60.81,49.41-16.92-12.9-12.42-41.87,12-36.34,4.56,1.07,9,2.69,13.58,3.65,11.05,2.32,20.18-.67,26.98-11.22Z"
      />
      <circle fill="#092246" cx="184.6" cy="18.26" r="14.81" />
      <circle fill="#092246" cx="153.51" cy="10.36" r="10.36" />
      <circle fill="#092246" cx="128.34" cy="14.81" r="8.88" />
      <circle fill="#092246" cx="110.07" cy="28.13" r="6.42" />
      <circle fill="#092246" cx="101.68" cy="44.91" r="4.94" />
      <path
        fill="#004c7e"
        d="m35.41,76.39C11.71,76.39-.09,64.49,0,40.71.07,21.26,15.96,5.56,35.41,5.56h43.26c1.85,0,3.35,1.5,3.35,3.35v15.67c-.01,1.85-1.51,3.34-3.36,3.34h-42.9c-7.25,0-13.39,5.75-13.4,13-.01,8.73,4.33,13.09,13.05,13.09h18.64c19.45,0,35.34,15.7,35.41,35.14.09,23.79-11.71,35.68-35.41,35.68H3.35c-1.85,0-3.35-1.5-3.35-3.35v-15.67c0-1.85,1.5-3.35,3.35-3.35h50.35c7.25,0,13.39-5.75,13.4-13,.02-8.73-4.33-13.09-13.05-13.09h-18.64Z"
      />
      <path
        fill="#004c7e"
        d="m245.95,76.39c-23.7,0-35.5-11.89-35.41-35.68.07-19.45,15.96-35.14,35.41-35.14h43.44c1.86,0,3.36,1.52,3.35,3.38l-.16,15.67c-.02,1.83-1.51,3.31-3.35,3.31h-42.93c-7.25,0-13.39,5.75-13.4,13-.01,8.73,4.33,13.09,13.04,13.09h18.64c19.45,0,35.34,15.7,35.41,35.14.09,23.79-11.71,35.68-35.41,35.68h-50.7c-1.85,0-3.35-1.5-3.35-3.35v-15.67c0-1.85,1.5-3.35,3.35-3.35h50.35c7.25,0,13.39-5.75,13.4-13,.02-8.73-4.33-13.09-13.05-13.09h-18.64Z"
      />
      <path
        fill="#092246"
        d="m20.6,138.28c7.33,0,10.46,4.53,10.46,9.74,0,4.92-2.84,10.22-10.46,10.22h-10.12c-.53,0-.82.24-.82.82v11.76H3.96v-12.87c0-3.66,1.54-5.16,5.11-5.16h11.72c3.23,0,4.53-2.22,4.53-4.48s-1.4-4.34-4.48-4.34H3.92v-5.69h16.68Z"
      />
      <path
        fill="#092246"
        d="m36.46,170.83h-6.27l11.43-28.93c1.21-3.04,3.42-4.19,6.85-4.19s5.59,1.16,6.75,4.19l10.99,28.93h-6.32l-9.88-26.18c-.29-.77-.82-1.11-1.59-1.11s-1.3.34-1.64,1.11l-10.32,26.18Z"
      />
      <path
        fill="#092246"
        d="m74.5,138.28v21.26c0,3.13,1.54,5.59,6.65,5.59h12.63v5.69h-12.97c-8.63,0-12.01-4.73-12.01-11.23v-21.31h5.69Z"
      />
      <path
        fill="#092246"
        d="m104.73,170.83h-5.64v-25.84c0-4.34,2.55-7.28,7.81-7.28,4.63,0,7.28,2.31,8.2,6.41l4.58,19.91c.29,1.16.96,1.83,2.17,1.83s1.88-.67,2.17-1.83l4.58-19.91c.92-4.1,3.33-6.41,8-6.41,5.25,0,7.81,2.94,7.81,7.28v25.84h-5.64v-25.55c0-1.25-.82-2.07-2.31-2.07-1.35,0-2.03.67-2.27,1.73l-4.68,19.91c-1.01,4.29-3.23,6.56-7.71,6.56s-6.89-2.36-7.86-6.56l-4.63-19.91c-.24-1.06-.96-1.73-2.27-1.73-1.49,0-2.31.82-2.31,2.07v25.55Z"
      />
      <path
        fill="#092246"
        d="m157.96,138.28v32.54h-5.69v-32.54h5.69Z"
      />
      <path
        fill="#092246"
        d="m171.17,138.28v21.26c0,3.13,1.54,5.59,6.65,5.59h12.63v5.69h-12.97c-8.63,0-12-4.73-12-11.23v-21.31h5.69Z"
      />
      <path
        fill="#092246"
        d="m201.5,138.28v13.26h16.63v-13.26h5.74v32.54h-5.74v-13.6h-16.63v13.6h-5.69v-32.54h5.69Z"
      />
      <path
        fill="#092246"
        d="m234.96,170.83h-6.27l11.43-28.93c1.21-3.04,3.42-4.19,6.85-4.19s5.59,1.16,6.75,4.19l10.99,28.93h-6.32l-9.88-26.18c-.29-.77-.82-1.11-1.59-1.11s-1.3.34-1.64,1.11l-10.32,26.18Z"
      />
      <path
        fill="#092246"
        d="m294.65,138.28v5.69h-16.68c-2.94,0-4.24,1.59-4.24,3.86,0,1.98,1.01,3.86,4.82,3.86h7.62c8.87,0,10.94,4.92,10.94,9.6,0,5.5-2.94,9.55-10.37,9.55h-18.13v-5.69h18.32c3.09,0,4.48-1.69,4.48-4.05,0-2.12-1.11-4.05-5.11-4.05h-7.57c-8.68,0-10.7-4.87-10.7-9.4,0-5.4,2.89-9.35,10.13-9.35h16.49Z"
      />
    </svg>
