<svg fill="#092246" xmlns="http://www.w3.org/2000/svg" viewBox="0 0 82.67 100" width="24" height="24">
    <path fill="#092246" d="m19.34,90.91C-16.47,55.94,19.98,7.78,60.95,29.58c22.18,11.8,12.1,45.57-13.11,35.43-7.64-2.75-16.17-6.18-22.81.69-5.99,5.47-4.74,12.35-3.7,19.43-19.07-23.22-.94-57.83,29.72-48.62-.44-.48-8.99-7.34-22.81-2.07-25.16,10.87-22.72,40.12-8.91,56.46Z"/>
    <path fill="#004c7e" d="m74.01,60.3c-3.5,12.86-17.39,14.11-28.46,10.79-20.73-5.96-19.68,16.37-4.21,21.64,27.69,9.43,41.82-19.98,39.07-36.7,11.5,27.33-23.5,56.43-47.2,38.36-13.13-10.01-9.64-32.5,9.32-28.21,3.54.83,6.99,2.09,10.54,2.83,8.57,1.8,15.66-.52,20.94-8.71Z"/>
    <circle fill="#092246" cx="68.19" cy="14.18" r="11.49"/>
    <circle fill="#092246" cx="44.06" cy="8.05" r="8.05"/>
    <circle fill="#092246" cx="24.52" cy="11.49" r="6.9"/>
    <circle fill="#092246" cx="10.34" cy="21.84" r="4.98"/>
    <circle fill="#092246" cx="3.83" cy="34.86" r="3.83"/>
</svg>